# xmcd CD database file
#
# Track frame offsets:
#	150
#	18162
#	48906
#	64170
#	83193
#	118820
#	133822
#	153844
#	184298
#
# Disc length: 2530 seconds
#
# Revision: 0
# Processed by: cddbd v1.5.1PL0 Copyright (c) Steve Scherf et al.
# Submitted via: CDex 1.51
#
DISCID=7409e009
DTITLE=Sedaví Big Band - De sentir latino
DYEAR=1997
DGENRE=Jazz
TTITLE0=Papiro
TTITLE1=O.T.B
TTITLE2=Deseo salvaje
TTITLE3=Night in Tunisia
TTITLE4=Springdance
TTITLE5=Cubauza
TTITLE6=Corazón Rebelde
TTITLE7=Paz profundo
TTITLE8=xxx - multimedia track - xxx
EXTD=YEAR: 1997
EXTT0=
EXTT1=
EXTT2=
EXTT3=
EXTT4=
EXTT5=
EXTT6=
EXTT7=
EXTT8=
PLAYORDER=
